<?xml version="1.0" encoding="iso-8859-1"?>
<!-- Uploaded to: SVG Repo, www.svgrepo.com, Generator: SVG Repo Mixer Tools -->
<svg version="1.1" id="Layer_1" xmlns="http://www.w3.org/2000/svg" xmlns:xlink="http://www.w3.org/1999/xlink" 
	 viewBox="0 0 315.512 315.512" xml:space="preserve">
<g>
	<g>
		<g>
			<g id="XMLID_28_">
				<g>
					<polygon style="fill:#D6AA83;" points="185.255,250.56 130.766,250.56 157.898,233.787 					"/>
					<polygon style="fill:#D6AA83;" points="141.895,224.005 108.702,244.499 108.702,203.673 					"/>
					<polygon style="fill:#D6AA83;" points="185.479,197.066 157.866,214.128 129.965,197.066 					"/>
					<polygon style="fill:#D6AA83;" points="206.55,203.737 206.55,243.953 173.87,223.941 					"/>
					<rect x="134.807" y="123.335" style="fill:#D6AA83;" width="45.605" height="21.487"/>
					<path style="fill:#F47C6D;" d="M255.265,117.595l40.377,80.979l-14.624,6.158l-39.319-78.926
						c-0.545-1.058-1.315-2.02-2.245-2.758l-79.856-64.655c-3.175-2.566-7.729-2.502-10.808,0.128l-75.046,64.302
						c-0.93,0.77-1.668,1.764-2.181,2.886c-1.315,2.822-27.132,59.459-36.432,80.145l-15.266-4.843
						c4.746-10.519,15.234-33.674,37.844-83.224c0.385-0.866,0.994-1.668,1.796-2.373l88.676-75.912
						c3.143-2.694,8.178-2.758,11.417-0.128l93.807,75.912C254.207,115.959,254.848,116.729,255.265,117.595z"/>
					<path style="fill:#2D213F;" d="M223.355,188.728v70.17c0,4.618-3.752,8.37-8.403,8.37H100.299c-4.65,0-8.403-3.752-8.403-8.37
						v-70.17c0-4.618,3.752-8.37,8.403-8.37h114.653C219.603,180.357,223.355,184.109,223.355,188.728z M206.55,243.953v-40.217
						l-32.68,20.205L206.55,243.953z M157.866,214.128l27.613-17.062h-55.515L157.866,214.128z M130.766,250.56h54.488
						l-27.356-16.773L130.766,250.56z M108.702,244.499l33.193-20.493l-33.193-20.333
						C108.702,203.673,108.702,244.499,108.702,244.499z"/>
					<path style="fill:#2D213F;" d="M197.217,114.997v38.196c0,4.618-3.752,8.37-8.403,8.37h-62.41c-4.618,0-8.403-3.752-8.403-8.37
						v-38.196c0-2.598,1.187-4.907,3.079-6.446c1.443-1.219,3.303-1.924,5.324-1.924h62.41c2.053,0,3.913,0.706,5.356,1.924
						C196.03,110.09,197.217,112.399,197.217,114.997z M180.412,144.823v-21.487h-45.605v21.487H180.412z"/>
					<path style="fill:#2D213F;" d="M314.628,199.119c1.058,2.053,1.155,4.458,0.353,6.607c-0.802,2.149-2.469,3.913-4.586,4.811
						l-30.114,12.668c-4.105,1.732-8.819-0.032-10.808-3.977l-9.974-20.012v87.201c0,4.586-3.752,8.338-8.403,8.338H62.167
						c-4.65,0-8.403-3.752-8.403-8.338v-81.011c-3.592,7.921-5.933,13.117-6.35,14.079c-1.315,3.207-4.458,5.163-7.761,5.163
						c-0.93,0-1.86-0.128-2.79-0.481l-10.615-3.72l-20.333-6.222c-2.181-0.673-4.009-2.213-5.035-4.265
						c-1.026-2.02-1.155-4.394-0.385-6.542c0.353-0.962,1.155-3.239,41.884-92.524c1.443-3.111,3.496-5.869,6.19-8.146
						l88.644-75.912c9.301-7.954,23.476-8.114,33.001-0.417l93.775,75.912c2.726,2.181,4.843,4.843,6.35,7.857L314.628,199.119z
						 M241.699,125.805l39.319,78.926l14.624-6.158l-40.377-80.979c-0.417-0.866-1.058-1.636-1.86-2.309l-93.807-75.912
						c-3.239-2.63-8.274-2.566-11.417,0.128l-88.676,75.912c-0.802,0.706-1.411,1.507-1.796,2.373
						c-22.61,49.549-33.097,72.704-37.844,83.224l15.266,4.843c9.301-20.686,35.118-77.323,36.432-80.145
						c0.513-1.122,1.251-2.117,2.181-2.886L148.79,58.52c3.079-2.63,7.633-2.694,10.808-0.128l79.856,64.655
						C240.384,123.784,241.154,124.746,241.699,125.805z M242.694,278.045V165.476l-15.266-30.628l-32.969-26.683l-40.024-32.392
						l-35.438,30.339L86.092,134.27c-5.292,11.578-10.583,23.251-15.522,34.123v109.65h172.124V278.045z"/>
					<path style="fill:#FEDE94;" d="M227.428,134.849l-32.969-26.683l-40.024-32.392l-35.438,30.339l-32.905,28.158
						c-5.292,11.578-10.583,23.251-15.522,34.123v109.65h172.124V165.476L227.428,134.849z M118.002,114.997
						c0-2.598,1.187-4.907,3.079-6.446c1.443-1.219,3.303-1.924,5.324-1.924h62.41c2.053,0,3.913,0.706,5.356,1.924
						c1.86,1.539,3.047,3.849,3.047,6.446v38.196c0,4.618-3.752,8.37-8.403,8.37h-62.41c-4.618,0-8.403-3.752-8.403-8.37V114.997z
						 M223.355,258.898c0,4.618-3.752,8.37-8.403,8.37H100.299c-4.65,0-8.403-3.752-8.403-8.37v-70.17
						c0-4.618,3.752-8.37,8.403-8.37h114.653c4.65,0,8.403,3.752,8.403,8.37V258.898z"/>
				</g>
			</g>
		</g>
		<path style="fill:#F2CE75;" d="M242.694,165.476l-15.266-30.628l-32.969-26.683l-40.024-32.392l-35.438,30.339L86.092,134.27
			c-5.292,11.578-10.583,23.251-15.522,34.123v13.694c4.339-6.696,23.732-33.844,23.732-33.844l23.7-18.037v-15.208
			c0-2.598,1.187-4.907,3.079-6.446c1.443-1.219,3.303-1.924,5.324-1.924h22.581l5.718-4.352l6.95,4.352h27.164
			c2.053,0,3.913,0.706,5.356,1.924c1.86,1.539,3.047,3.848,3.047,6.446v13.899l14.679,9.191l30.798,39.011v-11.626h-0.004V165.476z
			"/>
	</g>
</g>
</svg>